<svg xmlns="http://www.w3.org/2000/svg" width="104" height="23" viewBox="0 0 104 23"><defs><style>.cls-1 { fill: #f26522; } .cls-2 { font-size: 15px; font-family: Lato; font-weight: 700; text-transform: uppercase; } .cls-2, .cls-3 { fill: #fff; } .cls-3 { fill-rule: evenodd; }</style></defs><rect class="cls-1" width="104" height="23" rx="3" ry="3"/><text id="Selected" class="cls-2" x="25" y="17.145">Selected</text><path id="Check_copy" class="cls-3" d="M15 20a8 8 0 1 1 8-8 8 8 0 0 1-8 8zm0-14.286a6.286 6.286 0 1 0 6.286 6.286 6.293 6.293 0 0 0-6.286-6.286zm-.251 9.463a.857.857 0 0 1-1.212 0l-2.286-2.286a.857.857 0 0 1 1.212-1.212l1.68 1.679 3.965-3.965a.857.857 0 0 1 1.212 1.212z"/></svg>