<?xml version="1.0" standalone="no"?>
<!DOCTYPE svg PUBLIC "-//W3C//DTD SVG 20010904//EN"
 "http://www.w3.org/TR/2001/REC-SVG-20010904/DTD/svg10.dtd">
<svg version="1.0" xmlns="http://www.w3.org/2000/svg"
 width="553.000000pt" height="553.000000pt" viewBox="0 0 553.000000 553.000000"
 preserveAspectRatio="xMidYMid meet">
<metadata>
Created by potrace 1.11, written by Peter Selinger 2001-2013
</metadata>
<g transform="translate(0.000000,553.000000) scale(0.100000,-0.100000)"
fill="#000000" stroke="none">
<path d="M2558 5525 c-1 -1 -32 -6 -68 -9 -92 -9 -154 -18 -161 -22 -3 -1 -28
-6 -55 -10 -27 -3 -52 -8 -55 -10 -4 -2 -24 -6 -45 -10 -22 -3 -47 -10 -56
-15 -9 -5 -21 -8 -25 -7 -12 4 -278 -85 -281 -94 -2 -4 -9 -8 -16 -8 -41 0
-352 -160 -442 -227 -17 -13 -36 -23 -42 -23 -7 0 -12 -4 -12 -10 0 -5 -12
-16 -27 -24 -16 -8 -37 -23 -48 -33 -11 -10 -38 -31 -60 -47 -99 -72 -316
-290 -413 -416 -45 -58 -87 -112 -94 -121 -17 -21 -25 -34 -100 -159 -70 -118
-145 -270 -183 -370 -1 -3 -4 -12 -8 -20 -21 -51 -66 -190 -61 -190 2 0 0 -8
-5 -18 -6 -11 -12 -30 -14 -43 -3 -13 -10 -44 -17 -69 -7 -25 -14 -56 -16 -70
-3 -14 -6 -30 -9 -37 -2 -6 -7 -38 -11 -70 -3 -32 -8 -60 -9 -63 -18 -30 -27
-510 -12 -610 4 -25 9 -65 12 -90 3 -25 7 -56 10 -70 3 -14 8 -41 11 -60 3
-19 8 -38 10 -41 2 -4 6 -24 10 -45 3 -22 12 -61 21 -89 8 -27 21 -72 29 -100
29 -99 87 -243 152 -375 36 -74 68 -137 72 -140 4 -3 19 -27 34 -55 16 -27 39
-64 52 -82 13 -17 24 -34 24 -38 0 -17 181 -235 280 -337 l76 -78 -1 -559 0
-560 25 22 c14 12 32 29 41 37 9 8 51 47 94 85 44 39 108 97 144 130 59 55 92
84 186 170 253 228 222 207 264 186 63 -32 259 -100 364 -127 75 -19 199 -45
232 -49 17 -2 30 -4 30 -5 0 -1 11 -3 25 -4 14 -1 63 -7 110 -11 144 -15 551
-8 581 10 3 2 32 7 65 10 32 4 61 8 65 10 3 2 21 7 40 10 29 4 68 13 102 21 4
1 8 2 10 4 1 1 9 3 17 5 82 18 264 78 337 111 21 9 58 26 83 36 122 54 367
194 435 250 6 5 28 22 50 39 140 105 244 201 374 345 62 68 203 256 246 329
20 33 40 67 46 75 28 46 79 143 79 153 0 6 7 18 16 28 8 9 17 23 18 31 1 7 10
31 20 53 49 110 120 316 129 371 1 10 5 24 9 29 6 11 32 133 43 208 2 15 7 47
11 70 13 86 15 116 18 307 4 190 -8 345 -39 503 -3 15 -7 37 -9 50 -14 77 -88
334 -107 369 -5 10 -9 25 -9 33 0 8 -5 15 -12 15 -6 0 -9 3 -6 6 16 15 -195
429 -224 442 -5 2 -8 8 -8 13 0 7 -57 96 -70 109 -3 3 -18 23 -35 45 -16 22
-34 45 -40 51 -5 6 -28 33 -50 60 -76 92 -258 269 -345 334 -19 14 -45 34 -59
46 -43 35 -202 140 -261 171 -30 17 -71 39 -90 50 -30 17 -119 58 -235 108
-49 22 -176 66 -232 81 -146 39 -171 45 -203 50 -19 3 -51 9 -70 14 -19 5 -60
11 -90 15 -30 4 -66 9 -80 11 -28 6 -476 14 -482 9z"/>
</g>
</svg>
