<svg xmlns="http://www.w3.org/2000/svg" viewBox="0 0 161 37"><title>logo-color</title><path d="M81.046 1.413a2.1 2.1 0 0 0-2.152 2.04 2.155 2.155 0 0 0 4.3 0 2.1 2.1 0 0 0-2.152-2.04" fill="#1d1d1b"/><path d="M16.824 0a16.767 16.767 0 0 0-11.524 29v7.374l4.68-4.255a16.795 16.795 0 1 0 6.844-32.119m8.435 17.678c0 4.872-3.986 7.42-7.922 7.42l-.129-.006-.22.006c-3.946 0-7.934-2.548-7.934-7.42v-6.178a1.6 1.6 0 0 1 1.765-1.643 1.651 1.651 0 0 1 1.8 1.643v6.179a4.25 4.25 0 0 0 4.391 4.2h.3a4.248 4.248 0 0 0 4.385-4.2v-6.179a1.65 1.65 0 0 1 1.8-1.643 1.6 1.6 0 0 1 1.764 1.643v6.179z" fill="#007b81"/><path d="M46.282 7.729l-.272.007-.145-.007c-4.541 0-9.139 2.94-9.139 8.561v7.129a1.845 1.845 0 0 0 2.035 1.9 1.9 1.9 0 0 0 2.074-1.9v-7.129a4.9 4.9 0 0 1 5.057-4.841 3.435 3.435 0 0 0 .354 0 4.9 4.9 0 0 1 5.067 4.841v7.129a1.9 1.9 0 0 0 2.074 1.9 1.845 1.845 0 0 0 2.035-1.9v-7.129c0-5.621-4.6-8.561-9.139-8.561m-.037 3.442 32.932-1.859v14.646a1.888 1.888 0 0 0 3.746 0v-14.677c0-2.164-3.748-2.124-3.746.031m20.78.104a8.944 8.944 0 1 0 0 14.428 1.745 1.745 0 0 0 1.868 1.511 1.718 1.718 0 0 0 1.864-1.653v-14.193c0-2.12-3.588-2.118-3.735-.093m-5.272 12.513a5.3 5.3 0 1 1 5.264-5.752v.9a5.3 5.3 0 0 1-5.264 4.847m-36.556-19.015l.022 13.613a10.189 10.189 0 0 0 .972 4.77 7.233 7.233 0 0 0 2.552 2.708 9.387 9.387 0 0 0 5.464 1.6 8.945 8.945 0 1 0-5.264-16.17v-6.49c0-2.155-3.746-2.195-3.746-.031m3.746 14.2v-.922a5.3 5.3 0 1 1 0 .923m94.381-14.17v6.484a8.947 8.947 0 1 0-5.264 16.17 9.383 9.383 0 0 0 5.464-1.6 7.221 7.221 0 0 0 2.553-2.705 10.189 10.189 0 0 0 .972-4.771l.021-13.609c0-2.164-3.749-2.124-3.748.031m-5.262 19.008a5.3 5.3 0 1 1 5.264-5.761v.923a5.294 5.294 0 0 1-5.264 4.838m-10.825-5.326a8.97 8.97 0 0 0-17.939.009c0 5.5 4.31 8.952 9.232 8.952a10.588 10.588 0 0 0 6.867-2.145c2.028-1.489.186-4.128-1.976-2.754a6.88 6.88 0 0 1-4.814 1.429c-2.8 0-4.95-1.631-5.385-3.993h12.156c1.22 0 1.859-.638 1.859-1.37v-.128m-13.981-1.591a5.254 5.254 0 0 1 10.034.03zm-15.584-2.346c.056 2.868 9.78 1.526 9.78 7.653 0 3.491-3.017 5.256-6.608 5.274a8.987 8.987 0 0 1-6.586-2.133c-1.948-1.522.4-3.935 2.035-2.869a7.7 7.7 0 0 0 4.343 1.765c1.775.041 2.9-.285 3.038-1.559.315-2.9-9.71-1.7-9.71-8.015 0-3.343 2.892-5.125 6.4-5.125a8.02 8.02 0 0 1 5.908 2.224c1.1 1.008-.3 3.449-2.35 2.093a5.649 5.649 0 0 0-3.433-1.111c-1.41 0-2.841.387-2.813 1.805" fill="#1d1d1b"/></svg>